HIERARCHY
ROOT Hips
{
	OFFSET 0.000000 0.000000 0.000000
	CHANNELS 6 Xposition Yposition Zposition Zrotation Yrotation Xrotation 
	JOINT LHipJoint
	{
		OFFSET 0.000000 0.000000 0.000000
		CHANNELS 3 Zrotation Yrotation Xrotation
		JOINT LeftUpLeg
		{
			OFFSET 1.363060 -1.794630 0.839290
			CHANNELS 3 Zrotation Yrotation Xrotation
			JOINT LeftLeg
			{
				OFFSET 2.448110 -6.726130 0.000000
				CHANNELS 3 Zrotation Yrotation Xrotation
				JOINT LeftFoot
				{
					OFFSET 2.562200 -7.039590 0.000000
					CHANNELS 3 Zrotation Yrotation Xrotation
					JOINT LeftToeBase
					{
						OFFSET 0.157640 -0.433110 2.322550
						CHANNELS 3 Zrotation Yrotation Xrotation
						End Site
						{
							OFFSET 0.000000 0.000000 0.000000
						}
					}
				}
			}
		}
	}
	JOINT RHipJoint
	{
		OFFSET 0.000000 0.000000 0.000000
		CHANNELS 3 Zrotation Yrotation Xrotation
		JOINT RightUpLeg
		{
			OFFSET -1.305520 -1.794630 0.839290
			CHANNELS 3 Zrotation Yrotation Xrotation
			JOINT RightLeg
			{
				OFFSET -2.542530 -6.985550 0.000000
				CHANNELS 3 Zrotation Yrotation Xrotation
				JOINT RightFoot
				{
					OFFSET -2.568260 -7.056230 0.000000
					CHANNELS 3 Zrotation Yrotation Xrotation
					JOINT RightToeBase
					{
						OFFSET -0.164730 -0.452590 2.363150
						CHANNELS 3 Zrotation Yrotation Xrotation
						End Site
						{
							OFFSET 0.000000 0.000000 0.000000
						}
					}
				}
			}
		}
	}
	JOINT LowerBack
	{
		OFFSET 0.000000 0.000000 0.000000
		CHANNELS 3 Zrotation Yrotation Xrotation
		JOINT Spine
		{
			OFFSET 0.028270 2.035590 -0.193380
			CHANNELS 3 Zrotation Yrotation Xrotation
			JOINT Spine1
			{
				OFFSET 0.056720 2.048850 -0.042750
				CHANNELS 3 Zrotation Yrotation Xrotation
				JOINT Neck
				{
					OFFSET 0.000000 0.000000 0.000000
					CHANNELS 3 Zrotation Yrotation Xrotation
					JOINT Neck1
					{
						OFFSET -0.054170 1.746240 0.172020
						CHANNELS 3 Zrotation Yrotation Xrotation
						JOINT Head
						{
							OFFSET 0.104070 1.761360 -0.123970
							CHANNELS 3 Zrotation Yrotation Xrotation
							End Site
							{
								OFFSET 0.000000 0.000000 0.000000
							}
						}
					}
				}
				JOINT LeftShoulder
				{
					OFFSET 0.000000 0.000000 0.000000
					CHANNELS 3 Zrotation Yrotation Xrotation
					JOINT LeftArm
					{
						OFFSET 3.362410 1.200890 -0.311210
						CHANNELS 3 Zrotation Yrotation Xrotation
						JOINT LeftForeArm
						{
							OFFSET 4.983000 -0.000000 -0.000000
							CHANNELS 3 Zrotation Yrotation Xrotation
							JOINT LeftHand
							{
								OFFSET 3.483560 -0.000000 -0.000000
								CHANNELS 3 Zrotation Yrotation Xrotation
								JOINT LeftFingerBase
								{
									OFFSET 0.000000 0.000000 0.000000
									CHANNELS 3 Zrotation Yrotation Xrotation
									JOINT LeftHandIndex1
									{
										OFFSET 0.715260 -0.000000 -0.000000
										CHANNELS 3 Zrotation Yrotation Xrotation
										End Site
										{
											OFFSET 0.000000 0.000000 0.000000
										}
									}
								}
								JOINT LThumb
								{
									OFFSET 0.000000 0.000000 0.000000
									CHANNELS 3 Zrotation Yrotation Xrotation
									End Site
									{
										OFFSET 0.000000 0.000000 0.000000
									}
								}
							}
						}
					}
				}
				JOINT RightShoulder
				{
					OFFSET 0.000000 0.000000 0.000000
					CHANNELS 3 Zrotation Yrotation Xrotation
					JOINT RightArm
					{
						OFFSET -3.136600 1.374050 -0.404650
						CHANNELS 3 Zrotation Yrotation Xrotation
						JOINT RightForeArm
						{
							OFFSET -5.241900 -0.000000 -0.000000
							CHANNELS 3 Zrotation Yrotation Xrotation
							JOINT RightHand
							{
								OFFSET -3.444170 -0.000000 -0.000000
								CHANNELS 3 Zrotation Yrotation Xrotation
								JOINT RightFingerBase
								{
									OFFSET 0.000000 0.000000 0.000000
									CHANNELS 3 Zrotation Yrotation Xrotation
									JOINT RightHandIndex1
									{
										OFFSET -0.622530 -0.000000 -0.000000
										CHANNELS 3 Zrotation Yrotation Xrotation
										End Site
										{
											OFFSET 0.000000 0.000000 0.000000
										}
									}
								}
								JOINT RThumb
								{
									OFFSET 0.000000 0.000000 0.000000
									CHANNELS 3 Zrotation Yrotation Xrotation
									End Site
									{
										OFFSET 0.000000 0.000000 0.000000
									}
								}
							}
						}
					}
				}
			}
		}
	}
}
MOTION
Frames: 4
Frame Time: 0.008333
0.761589 9.818596 -0.829865 1.571404 -4.164645 -19.136802 1.963938 4.339602 3.466410 -4.270213 -0.600957 -106.977355 35.862282 15.348429 140.845782 0.509267 -4.435281 14.118605 0.006400 -0.517100 -1.420900 -2.804049 -5.859101 8.684533 5.797510 3.997431 -115.176382 -38.025061 -14.115063 145.127187 3.414458 -18.895907 21.718090 -0.738900 -5.491600 15.316100 2.479126 1.072216 30.635945 -2.127065 2.033078 27.322091 -2.291401 1.526882 -12.132541 -5.873945 -1.833149 -22.676361 3.102048 -1.127602 -0.972071 2.343000 -0.234300 2.191600 -1.097521 -4.898107 1.967527 -112.828445 -84.124633 75.854570 126.430782 -56.227360 -92.370675 0.197095 -0.685481 -4.951584 31.404118 12.888858 8.201000 -7.125000 0.000000 0.000000 3.649400 45.897100 0.080900 -0.101268 6.057755 -5.158586 49.695627 71.882013 15.579742 -116.810126 55.812292 -89.115553 -0.668834 2.742868 3.528992 -45.713498 14.474896 -10.599200 7.125000 0.000000 0.000000 -12.230500 -15.128800 -8.821000 
0.760905 9.821335 -0.831821 1.526326 -4.212089 -19.186085 1.968755 4.339944 3.466926 -4.240713 -0.464602 -106.904258 35.861086 15.361297 140.830406 0.520888 -4.532662 14.250584 0.010500 -0.661400 -1.817400 -2.816402 -5.856176 8.685239 5.889741 4.055193 -115.036167 -38.017156 -14.123528 145.079151 3.422621 -18.942276 21.713727 -0.763900 -5.581300 15.574400 2.517432 1.075179 30.619592 -2.134840 2.050929 27.396287 -2.324381 1.536439 -12.046525 -5.919361 -1.914497 -22.603698 3.395452 -1.254863 -1.139498 2.430000 -0.288100 2.149500 -1.084845 -4.918926 1.967857 -112.938782 -84.174493 76.206214 126.309301 -56.281777 -92.280092 0.191063 -0.676754 -3.675906 32.119220 12.618217 8.262200 -7.125000 0.000000 0.000000 4.336800 45.679200 0.072800 -0.104177 6.065572 -5.181891 49.648608 71.859409 15.556424 -116.898143 55.800141 -89.171357 -0.666864 2.742760 4.216690 -45.937606 14.478855 -10.679500 7.125000 0.000000 0.000000 -12.354800 -15.071400 -8.930600 
0.761100 9.825052 -0.833484 1.496398 -4.261784 -19.268468 1.974798 4.340687 3.467521 -4.237122 -0.327160 -106.780304 35.858645 15.374655 140.809135 0.529160 -4.592563 14.369271 0.014600 -0.780800 -2.145800 -2.827660 -5.846931 8.682821 5.977756 4.046754 -114.841326 -38.008031 -14.137675 145.036284 3.417877 -18.909397 21.675678 -0.770700 -5.605700 15.644700 2.556182 1.055800 30.676324 -2.166058 2.050315 27.430496 -2.363179 1.530704 -12.016379 -5.999532 -1.979851 -22.358193 3.715194 -1.364292 -1.413219 2.528000 -0.334200 2.037700 -1.081243 -4.906794 1.935554 -112.974777 -84.157336 76.519707 126.186837 -56.335079 -92.190222 0.186343 -0.669427 -2.423737 32.632634 12.502120 8.347900 -7.125000 0.000000 0.000000 4.821100 45.609500 0.072700 -0.093107 6.025972 -5.126385 49.799439 71.919619 15.795741 -117.013305 55.734695 -89.273612 -0.666561 2.752495 4.815796 -46.190507 14.638561 -10.906300 7.125000 0.000000 0.000000 -12.470200 -14.818400 -9.087600 
0.761492 9.826324 -0.834462 1.440111 -4.280684 -19.244076 1.976139 4.344003 3.469256 -4.187740 -0.263252 -106.812872 35.860219 15.382134 140.796030 0.521512 -4.501231 14.373740 0.013000 -0.737100 -2.025800 -2.831935 -5.844419 8.683624 6.078369 4.099271 -114.832762 -38.004464 -14.139862 145.018726 3.422526 -18.933048 21.674719 -0.760000 -5.567400 15.534100 2.608437 1.035844 30.716758 -2.175783 2.049144 27.403246 -2.398854 1.529380 -12.051963 -6.183596 -2.040738 -22.120793 4.123902 -1.452833 -1.635286 2.674800 -0.368100 1.954200 -1.077510 -4.920900 1.925284 -112.979160 -84.122972 76.855559 126.035194 -56.400352 -92.081311 0.182264 -0.661114 -1.256732 33.341231 11.891472 8.186100 -7.125000 0.000000 0.000000 5.504600 44.989600 -0.001400 -0.081433 6.014817 -5.122699 49.782290 71.885145 15.902526 -117.260779 55.680095 -89.443546 -0.672747 2.751749 5.264559 -46.449560 14.959693 -11.308600 7.125000 0.000000 0.000000 -12.551800 -14.323900 -9.285900 
